<svg
  width="20"
  height="8"
  viewBox="0 0 19 8"
  fill="#1e54c9"
  xmlns="http://www.w3.org/2000/svg"
>
  <path d="M3.52539 2.10645L1.5918 8H0.0341797L2.67578 0.890625H3.66699L3.52539 2.10645ZM5.13184 8L3.19336 2.10645L3.03711 0.890625H4.03809L6.69434 8H5.13184ZM5.04395 5.35352V6.50098H1.28906V5.35352H5.04395Z"></path>
  <path d="M12.6396 0.890625V8H11.1748L8.31836 3.23438V8H6.85352V0.890625H8.31836L11.1797 5.66113V0.890625H12.6396Z"></path>
  <path d="M15.5967 8H14.0488L14.0586 6.85742H15.5967C15.9808 6.85742 16.3047 6.77116 16.5684 6.59863C16.832 6.42285 17.0306 6.16732 17.1641 5.83203C17.3008 5.49674 17.3691 5.09147 17.3691 4.61621V4.26953C17.3691 3.90495 17.3301 3.58431 17.252 3.30762C17.1771 3.03092 17.0648 2.79818 16.915 2.60938C16.7653 2.42057 16.5814 2.27897 16.3633 2.18457C16.1452 2.08691 15.8945 2.03809 15.6113 2.03809H14.0195V0.890625H15.6113C16.0866 0.890625 16.5212 0.972005 16.915 1.13477C17.3122 1.29427 17.6556 1.52376 17.9453 1.82324C18.235 2.12272 18.458 2.48079 18.6143 2.89746C18.7738 3.31087 18.8535 3.77148 18.8535 4.2793V4.61621C18.8535 5.12077 18.7738 5.58138 18.6143 5.99805C18.458 6.41471 18.235 6.77279 17.9453 7.07227C17.6589 7.36849 17.3154 7.59798 16.915 7.76074C16.5179 7.92025 16.0785 8 15.5967 8ZM14.8789 0.890625V8H13.4141V0.890625H14.8789Z"></path>
</svg>