<svg 
  width="14" 
  height="9" 
  viewBox="0 0 14 9" 
  fill="#058d52" 
  xmlns="http://www.w3.org/2000/svg"
>
  <path d="M6.47461 4.2793V4.61621C6.47461 5.15658 6.40137 5.6416 6.25488 6.07129C6.1084 6.50098 5.90169 6.86719 5.63477 7.16992C5.36784 7.4694 5.04883 7.69889 4.67773 7.8584C4.3099 8.0179 3.90137 8.09766 3.45215 8.09766C3.00618 8.09766 2.59766 8.0179 2.22656 7.8584C1.85872 7.69889 1.53971 7.4694 1.26953 7.16992C0.999349 6.86719 0.789388 6.50098 0.639648 6.07129C0.493164 5.6416 0.419922 5.15658 0.419922 4.61621V4.2793C0.419922 3.73568 0.493164 3.25065 0.639648 2.82422C0.786133 2.39453 0.992839 2.02832 1.25977 1.72559C1.52995 1.42285 1.84896 1.19173 2.2168 1.03223C2.58789 0.872721 2.99642 0.792969 3.44238 0.792969C3.8916 0.792969 4.30013 0.872721 4.66797 1.03223C5.03906 1.19173 5.35807 1.42285 5.625 1.72559C5.89518 2.02832 6.10352 2.39453 6.25 2.82422C6.39974 3.25065 6.47461 3.73568 6.47461 4.2793ZM4.99512 4.61621V4.26953C4.99512 3.89193 4.96094 3.5599 4.89258 3.27344C4.82422 2.98698 4.72331 2.74609 4.58984 2.55078C4.45638 2.35547 4.29362 2.20898 4.10156 2.11133C3.90951 2.01042 3.68978 1.95996 3.44238 1.95996C3.19499 1.95996 2.97526 2.01042 2.7832 2.11133C2.5944 2.20898 2.43327 2.35547 2.2998 2.55078C2.1696 2.74609 2.07031 2.98698 2.00195 3.27344C1.93359 3.5599 1.89941 3.89193 1.89941 4.26953V4.61621C1.89941 4.99056 1.93359 5.32259 2.00195 5.6123C2.07031 5.89876 2.17122 6.14128 2.30469 6.33984C2.43815 6.53516 2.60091 6.68327 2.79297 6.78418C2.98503 6.88509 3.20475 6.93555 3.45215 6.93555C3.69954 6.93555 3.91927 6.88509 4.11133 6.78418C4.30339 6.68327 4.46452 6.53516 4.59473 6.33984C4.72493 6.14128 4.82422 5.89876 4.89258 5.6123C4.96094 5.32259 4.99512 4.99056 4.99512 4.61621Z"></path><path d="M7.5293 0.890625H10.1807C10.7243 0.890625 11.1914 0.972005 11.582 1.13477C11.9759 1.29753 12.2786 1.53841 12.4902 1.85742C12.7018 2.17643 12.8076 2.56868 12.8076 3.03418C12.8076 3.41504 12.7425 3.74219 12.6123 4.01562C12.4854 4.28581 12.3047 4.51204 12.0703 4.69434C11.8392 4.87337 11.5674 5.0166 11.2549 5.12402L10.791 5.36816H8.48633L8.47656 4.22559H10.1904C10.4476 4.22559 10.6608 4.18001 10.8301 4.08887C10.9993 3.99772 11.1263 3.87077 11.2109 3.70801C11.2988 3.54525 11.3428 3.35645 11.3428 3.1416C11.3428 2.91374 11.3005 2.7168 11.2158 2.55078C11.1312 2.38477 11.0026 2.25781 10.8301 2.16992C10.6576 2.08203 10.4411 2.03809 10.1807 2.03809H8.99414V8H7.5293V0.890625ZM11.5039 8L9.88281 4.83105L11.4307 4.82129L13.0713 7.93164V8H11.5039Z"></path>
</svg>